<?xml version="1.0" standalone="no"?>
<!DOCTYPE svg PUBLIC "-//W3C//DTD SVG 20010904//EN"
 "http://www.w3.org/TR/2001/REC-SVG-20010904/DTD/svg10.dtd">
<svg version="1.0" xmlns="http://www.w3.org/2000/svg"
 width="512.000000pt" height="512.000000pt" viewBox="0 0 512.000000 512.000000"
 preserveAspectRatio="xMidYMid meet">

<g transform="translate(0.000000,512.000000) scale(0.100000,-0.100000)"
fill="#000000" stroke="none">
<path d="M4820 5085 c-360 -105 -733 -292 -1032 -517 -65 -49 -141 -111 -170
-138 l-53 -49 408 -408 408 -408 49 53 c197 211 427 595 563 937 61 152 127
369 127 416 0 76 -75 150 -152 149 -18 -1 -85 -16 -148 -35z"/>
<path d="M3187 4136 c-70 -40 -131 -76 -134 -80 -7 -7 985 -1006 998 -1006 4
0 33 46 65 103 32 56 66 116 76 132 l17 31 -447 446 -447 447 -128 -73z"/>
<path d="M1683 2748 c-611 -612 -1114 -1124 -1118 -1137 -6 -21 46 -77 508
-538 461 -462 517 -514 538 -508 25 8 2249 2222 2249 2240 0 13 -1042 1055
-1055 1055 -6 0 -510 -501 -1122 -1112z"/>
<path d="M187 1243 c-183 -174 -211 -224 -172 -307 8 -17 217 -233 463 -478
396 -396 451 -447 485 -454 72 -13 104 6 234 138 66 68 135 140 154 161 l32
39 -519 519 c-285 285 -522 519 -526 519 -3 0 -71 -62 -151 -137z"/>
</g>
</svg>
